# xmcd CD database file
#
# Track frame offsets:
#	150
#	15712
#	28657
#	48967
#	67597
#	87157
#	102970
#	124137
#	143852
#	160912
#	177755
#	192782
#	213880
#	230657
#	249017
#
# Disc length: 3493 seconds
#
# Revision: 1
# Processed by: cddbd v1.5.1PL0 Copyright (c) Steve Scherf et al.
# Submitted via: CDex 1.51
#
DISCID=b90da30f
DTITLE=Various Artist - Hey Bo Diddley - A Tribute
DYEAR=1900
DGENRE=Jazz
TTITLE0=Bo Diddley
TTITLE1=Who Do You Love
TTITLE2=Road Runner
TTITLE3=I Can Tell
TTITLE4=Ride on Josephine
TTITLE5=Crackin Up
TTITLE6=Pills
TTITLE7=Mona
TTITLE8=I'm A Man
TTITLE9=Don't Let It Go
TTITLE10=Hey Bo Diddley
TTITLE11=You Don't Love Me
TTITLE12=My Story
TTITLE13=You Can't Judge A Book By The Cover
TTITLE14=Before You Accuse Me
EXTD=
EXTT0=
EXTT1=
EXTT2=
EXTT3=
EXTT4=
EXTT5=
EXTT6=
EXTT7=
EXTT8=
EXTT9=
EXTT10=
EXTT11=
EXTT12=
EXTT13=
EXTT14=
PLAYORDER=
